<svg xmlns="http://www.w3.org/2000/svg" xmlns:xlink="http://www.w3.org/1999/xlink" viewBox="0 0 402.87 532.19"><defs><style>.cls-1{mask:url(#mask);filter:url(#luminosity-noclip-4);}.cls-10,.cls-2,.cls-4,.cls-6{mix-blend-mode:multiply;}.cls-2{fill:url(#radial-gradient);}.cls-3{mask:url(#mask-2);filter:url(#luminosity-noclip-5);}.cls-4{fill:url(#radial-gradient-2);}.cls-5{mask:url(#mask-3);filter:url(#luminosity-noclip-6);}.cls-6{fill:url(#radial-gradient-3);}.cls-7{isolation:isolate;}.cls-8{fill:url(#linear-gradient);}.cls-9{fill:url(#linear-gradient-2);}.cls-10{fill:#008cc1;opacity:0.7;}.cls-11{fill:url(#linear-gradient-3);}.cls-12{fill:url(#linear-gradient-4);}.cls-13{fill:url(#linear-gradient-5);}.cls-14{mask:url(#mask-4);}.cls-15,.cls-17,.cls-19{opacity:0.5;mix-blend-mode:overlay;}.cls-15{fill:url(#radial-gradient-4);}.cls-16{mask:url(#mask-5);}.cls-17{fill:url(#radial-gradient-5);}.cls-18{mask:url(#mask-6);}.cls-19{fill:url(#radial-gradient-6);}.cls-20{filter:url(#luminosity-noclip-3);}.cls-21{filter:url(#luminosity-noclip-2);}.cls-22{filter:url(#luminosity-noclip);}</style><filter id="luminosity-noclip" x="201.44" y="-8526.12" width="201.43" height="32766" filterUnits="userSpaceOnUse" color-interpolation-filters="sRGB"><feFlood flood-color="#fff" result="bg"/><feBlend in="SourceGraphic" in2="bg"/></filter><mask id="mask" x="201.44" y="-8526.12" width="201.43" height="32766" maskUnits="userSpaceOnUse"><g class="cls-22"/></mask><radialGradient id="radial-gradient" cx="112.23" cy="9935.02" r="387.21" gradientTransform="matrix(0, -1, -1, 0, 10498.06, 498.06)" gradientUnits="userSpaceOnUse"><stop offset="0" stop-color="#fff"/><stop offset="0.18" stop-color="#fcfcfc"/><stop offset="0.31" stop-color="#f3f3f3"/><stop offset="0.43" stop-color="#e3e3e3"/><stop offset="0.54" stop-color="#ccc"/><stop offset="0.64" stop-color="#afafaf"/><stop offset="0.74" stop-color="#8b8b8b"/><stop offset="0.83" stop-color="#616161"/><stop offset="0.92" stop-color="#313131"/><stop offset="1"/></radialGradient><filter id="luminosity-noclip-2" x="0.06" y="-8526.12" width="402.81" height="32766" filterUnits="userSpaceOnUse" color-interpolation-filters="sRGB"><feFlood flood-color="#fff" result="bg"/><feBlend in="SourceGraphic" in2="bg"/></filter><mask id="mask-2" x="0.06" y="-8526.12" width="402.81" height="32766" maskUnits="userSpaceOnUse"><g class="cls-21"/></mask><radialGradient id="radial-gradient-2" cx="619.29" cy="10282.76" r="398.31" gradientTransform="matrix(0, -1, -1, 0, 10498.06, 498.06)" gradientUnits="userSpaceOnUse"><stop offset="0" stop-color="#fff"/><stop offset="1"/></radialGradient><filter id="luminosity-noclip-3" x="0.06" y="-8526.12" width="201.38" height="32766" filterUnits="userSpaceOnUse" color-interpolation-filters="sRGB"><feFlood flood-color="#fff" result="bg"/><feBlend in="SourceGraphic" in2="bg"/></filter><mask id="mask-3" x="0.06" y="-8526.12" width="201.38" height="32766" maskUnits="userSpaceOnUse"><g class="cls-20"/></mask><radialGradient id="radial-gradient-3" cx="112.23" cy="10072.89" r="441.9" gradientTransform="matrix(0, -1, -1, 0, 10498.06, 498.06)" gradientUnits="userSpaceOnUse"><stop offset="0" stop-color="#fff"/><stop offset="0.2" stop-color="#fcfcfc"/><stop offset="0.33" stop-color="#f3f3f3"/><stop offset="0.45" stop-color="#e4e4e4"/><stop offset="0.55" stop-color="#cfcfcf"/><stop offset="0.65" stop-color="#b3b3b3"/><stop offset="0.74" stop-color="#919191"/><stop offset="0.83" stop-color="#686868"/><stop offset="0.91" stop-color="#393939"/><stop offset="0.99" stop-color="#060606"/><stop offset="1"/></radialGradient><linearGradient id="linear-gradient" x1="345.77" y1="113.07" x2="367.55" y2="500.7" gradientUnits="userSpaceOnUse"><stop offset="0" stop-color="#8266ef"/><stop offset="0.11" stop-color="#6d6cea"/><stop offset="0.32" stop-color="#3c79e0"/><stop offset="0.49" stop-color="#3191e3"/><stop offset="0.86" stop-color="#15d0eb"/><stop offset="1" stop-color="#09eaee"/></linearGradient><linearGradient id="linear-gradient-2" x1="12.92" y1="6.36" x2="62.18" y2="521.82" gradientUnits="userSpaceOnUse"><stop offset="0.03" stop-color="#7f66ee"/><stop offset="0.27" stop-color="#3c77e0"/><stop offset="0.45" stop-color="#2e96e4"/><stop offset="0.82" stop-color="#14d2eb"/><stop offset="1" stop-color="#09eaee"/></linearGradient><linearGradient id="linear-gradient-3" x1="380.01" y1="336.67" x2="224.32" y2="191.49" gradientUnits="userSpaceOnUse"><stop offset="0.01" stop-color="#8964f0"/><stop offset="0.44" stop-color="#3c77e0"/><stop offset="1" stop-color="#1ac4e9"/></linearGradient><linearGradient id="linear-gradient-4" x1="197.31" y1="12.17" x2="101.31" y2="293.12" gradientUnits="userSpaceOnUse"><stop offset="0" stop-color="#0aeaee"/><stop offset="0.63" stop-color="#1fbae8"/><stop offset="1" stop-color="#2aa2e5"/></linearGradient><linearGradient id="linear-gradient-5" x1="79.48" y1="52.4" x2="185.21" y2="542.13" gradientUnits="userSpaceOnUse"><stop offset="0.13" stop-color="#13d3eb"/><stop offset="0.88" stop-color="#3d76e0"/><stop offset="0.96" stop-color="#706aeb"/><stop offset="1" stop-color="#8865f0"/></linearGradient><filter id="luminosity-noclip-4" x="201.44" y="0.02" width="201.43" height="528.13" filterUnits="userSpaceOnUse" color-interpolation-filters="sRGB"><feFlood flood-color="#fff" result="bg"/><feBlend in="SourceGraphic" in2="bg"/></filter><mask id="mask-4" x="201.44" y="0.02" width="201.43" height="528.13" maskUnits="userSpaceOnUse"><g class="cls-1"><polygon class="cls-2" points="402.88 0.02 345.57 85.88 201.44 301.82 201.44 528.1 201.46 528.15 281.56 318.13 353.71 128.99 365.7 97.53 402.88 0.02"/></g></mask><radialGradient id="radial-gradient-4" cx="112.23" cy="9935.02" r="387.21" gradientTransform="matrix(0, -1, -1, 0, 10498.06, 498.06)" gradientUnits="userSpaceOnUse"><stop offset="0" stop-color="#fff"/><stop offset="0.89" stop-color="#fff"/><stop offset="1" stop-color="#fff"/></radialGradient><filter id="luminosity-noclip-5" x="0.06" y="0" width="402.81" height="301.82" filterUnits="userSpaceOnUse" color-interpolation-filters="sRGB"><feFlood flood-color="#fff" result="bg"/><feBlend in="SourceGraphic" in2="bg"/></filter><mask id="mask-5" x="0.06" y="0" width="402.81" height="301.82" maskUnits="userSpaceOnUse"><g class="cls-3"><path class="cls-4" d="M.11,0h0s0,0,0,0h0L57.35,85.9h0L201.44,301.82,345.57,85.88,402.87,0h-.12L308.8,69.46,292.25,81.69l-90.81,67.09L117.18,86.51,94.12,69.46Z"/></g></mask><radialGradient id="radial-gradient-5" cx="619.29" cy="10282.76" r="398.31" gradientTransform="matrix(0, -1, -1, 0, 10498.06, 498.06)" gradientUnits="userSpaceOnUse"><stop offset="0" stop-color="#fff"/><stop offset="1" stop-color="#fff"/></radialGradient><filter id="luminosity-noclip-6" x="0.06" y="0.03" width="201.38" height="528.06" filterUnits="userSpaceOnUse" color-interpolation-filters="sRGB"><feFlood flood-color="#fff" result="bg"/><feBlend in="SourceGraphic" in2="bg"/></filter><mask id="mask-6" x="0.06" y="0.03" width="201.38" height="528.06" maskUnits="userSpaceOnUse"><g class="cls-5"><polygon class="cls-6" points="0.06 0.03 37.24 97.53 57.98 151.94 143.28 375.62 201.44 528.1 201.44 301.82 57.37 85.9 57.35 85.9 0.06 0.03"/></g></mask><radialGradient id="radial-gradient-6" cx="112.23" cy="10072.89" r="441.9" gradientTransform="matrix(0, -1, -1, 0, 10498.06, 498.06)" gradientUnits="userSpaceOnUse"><stop offset="0" stop-color="#fff"/><stop offset="0.87" stop-color="#fff"/><stop offset="1" stop-color="#fff"/></radialGradient></defs><g class="cls-7"><g id="Layer_2" data-name="Layer 2"><g id="Layer_1-2" data-name="Layer 1"><path class="cls-8" d="M302.16,264.07V462.19a70,70,0,0,0,70,70h30.59V0"/><path class="cls-9" d="M100.66,264.07V462.19a70,70,0,0,1-70,70H.06V0"/><g id="Layer_6" data-name="Layer 6"><polygon class="cls-10" points="0 0.03 0 0.11 100.72 403.72 100.72 264.2 0 0.03"/><polygon class="cls-10" points="402.81 0.02 402.81 0.09 302.1 403.7 302.1 264.18 402.81 0.02"/></g><g id="Layer_2_copy" data-name="Layer 2 copy"><polygon class="cls-11" points="402.88 0.02 345.57 85.88 201.44 301.82 201.44 528.1 201.46 528.15 281.56 318.13 353.71 128.99 365.7 97.53 402.88 0.02"/><path class="cls-12" d="M.11,0h0s0,0,0,0h0L57.35,85.9h0L201.44,301.82,345.57,85.88,402.87,0h-.12L308.8,69.46,292.25,81.69l-90.81,67.09L117.18,86.51,94.12,69.46Z"/><polygon class="cls-13" points="0.06 0.03 37.24 97.53 57.98 151.94 143.28 375.62 201.44 528.1 201.44 301.82 57.37 85.9 57.35 85.9 0.06 0.03"/><g class="cls-14"><polygon class="cls-15" points="402.88 0.02 345.57 85.88 201.44 301.82 201.44 528.1 201.46 528.15 281.56 318.13 353.71 128.99 365.7 97.53 402.88 0.02"/></g><g class="cls-16"><path class="cls-17" d="M.11,0h0s0,0,0,0h0L57.35,85.9h0L201.44,301.82,345.57,85.88,402.87,0h-.12L308.8,69.46,292.25,81.69l-90.81,67.09L117.18,86.51,94.12,69.46Z"/></g><g class="cls-18"><polygon class="cls-19" points="0.06 0.03 37.24 97.53 57.98 151.94 143.28 375.62 201.44 528.1 201.44 301.82 57.37 85.9 57.35 85.9 0.06 0.03"/></g></g></g></g></g></svg>