<svg xmlns="http://www.w3.org/2000/svg" viewBox="0 0 427.81 557.19"><defs><style>.cls-1,.cls-2{fill:none;stroke:#000;stroke-width:25px;}.cls-1{stroke-miterlimit:10;}.cls-2{stroke-linecap:round;stroke-linejoin:round;}</style></defs><g id="Layer_2" data-name="Layer 2"><g id="Layer_1-2" data-name="Layer 1"><path class="cls-1" d="M314.6,276.57V474.69a70,70,0,0,0,70,70h30.6V12.52"/><path class="cls-1" d="M113.1,276.57V474.69a70,70,0,0,1-70,70H12.5V12.52"/><g id="Layer_2_copy" data-name="Layer 2 copy"><polygon class="cls-2" points="415.31 12.52 358.01 98.38 213.88 314.32 213.88 540.6 213.9 540.65 294 330.63 366.15 141.49 378.14 110.03 415.31 12.52"/><path class="cls-2" d="M12.55,12.5h0s0,0,0,0h0L69.79,98.4h0L213.88,314.32,358,98.38l57.3-85.86h-.11L321.24,82,304.69,94.19l-90.81,67.09L129.62,99,106.56,82Z"/><polygon class="cls-2" points="12.5 12.53 49.68 110.03 70.42 164.44 155.72 388.12 213.88 540.6 213.88 314.32 69.81 98.4 69.79 98.4 12.5 12.53"/></g></g></g></svg>